<?xml version="1.0" encoding="UTF-8"?>
<svg width="512" height="512" viewBox="0 0 512 512" xmlns="http://www.w3.org/2000/svg">
  <path fill="#1E90FF" d="M512 256c0 .9 0 1.8 0 2.7c-.4 36.5-33.6 61.3-70.1 61.3H344c-26.5 0-48 21.5-48 48c0 3.4 .4 6.7 1 9.9c2.1 10.2 6.5 20.3 6.5 31.8c0 48.6-39.4 88-88 88s-88-39.4-88-88c0-11.4 4.4-21.5 6.5-31.8c.6-3.3 1-6.6 1-9.9c0-26.5-21.5-48-48-48H40.1c-36.5 0-69.7-24.8-70.1-61.3c0-.9 0-1.8 0-2.7c0-141.4 114.6-256 256-256S512 114.6 512 256zM256 512c17.7 0 32-14.3 32-32s-14.3-32-32-32s-32 14.3-32 32s14.3 32 32 32zm64-184c17.7 0 32-14.3 32-32s-14.3-32-32-32s-32 14.3-32 32s14.3 32 32 32zM160 256c17.7 0 32-14.3 32-32s-14.3-32-32-32s-32 14.3-32 32s14.3 32 32 32zm128-64c17.7 0 32-14.3 32-32s-14.3-32-32-32s-32 14.3-32 32s14.3 32 32 32z"/>
</svg> 